<mxfile host="app.diagrams.net" modified="2024-04-16T20:13:56.461Z" agent="Mozilla/5.0 (X11; Linux x86_64) AppleWebKit/537.36 (KHTML, like Gecko) Chrome/120.0.0.0 Safari/537.36" version="24.2.5" etag="iYADhypV6k7OIKBDjKRL" type="github">
  <diagram name="Page-1" id="d4D2HA2UJpCok_UF2j4H">
    <mxGraphModel>
      <root>
        <mxCell id="0" />
        <mxCell id="1" parent="0" />
      </root>
    </mxGraphModel>
  </diagram>
</mxfile>
